<?xml version="1.0" encoding="UTF-8" standalone="no"?>
<!DOCTYPE svg PUBLIC "-//W3C//DTD SVG 1.1//EN" "http://www.w3.org/Graphics/SVG/1.1/DTD/svg11.dtd">
<svg width="100%" height="100%" viewBox="0 0 600 600" version="1.1" xmlns="http://www.w3.org/2000/svg" xmlns:xlink="http://www.w3.org/1999/xlink" xml:space="preserve" xmlns:serif="http://www.serif.com/" style="fill-rule:evenodd;clip-rule:evenodd;stroke-linejoin:round;stroke-miterlimit:2;">
    <g transform="matrix(-2.69602,0.875852,-1.00827,-3.10361,1527.28,823.928)">
        <path d="M460.486,268.898C460.486,229.071 430.964,193.773 387.359,181.465L354.655,268.898L460.486,268.898Z" style="fill:rgb(255,190,11);"/>
    </g>
    <g transform="matrix(-1.66512,-2.29412,2.64095,-1.91686,180.399,1629.06)">
        <path d="M460.486,268.898C460.486,229.071 430.964,193.773 387.359,181.465L354.655,268.898L460.486,268.898Z" style="fill:rgb(251,86,7);"/>
    </g>
    <g transform="matrix(1.66575,-2.29367,2.64043,1.91758,-1000.77,597.827)">
        <path d="M460.486,268.898C460.486,229.071 430.964,193.773 387.359,181.465L354.655,268.898L460.486,268.898Z" style="fill:rgb(255,0,110);"/>
    </g>
    <g transform="matrix(2.69629,0.875024,-1.00731,3.10392,-385.388,-844.969)">
        <path d="M460.486,268.898C460.486,229.071 430.964,193.773 387.359,181.465L354.655,268.898L460.486,268.898Z" style="fill:rgb(131,56,236);"/>
    </g>
    <g transform="matrix(-0.000580734,2.83472,-3.26328,-0.00066853,1177.69,-705.168)">
        <path d="M460.486,268.898C460.486,229.071 430.964,193.773 387.359,181.465L354.655,268.898L460.486,268.898Z" style="fill:rgb(58,134,255);"/>
    </g>
</svg>
